%TF.GenerationSoftware,KiCad,Pcbnew,(6.0.2)*%
%TF.CreationDate,2022-10-02T17:57:44-05:00*%
%TF.ProjectId,MCN003R3,4d434e30-3033-4523-932e-6b696361645f,rev?*%
%TF.SameCoordinates,Original*%
%TF.FileFunction,Copper,L2,Bot*%
%TF.FilePolarity,Positive*%
%FSLAX46Y46*%
G04 Gerber Fmt 4.6, Leading zero omitted, Abs format (unit mm)*
G04 Created by KiCad (PCBNEW (6.0.2)) date 2022-10-02 17:57:44*
%MOMM*%
%LPD*%
G01*
G04 APERTURE LIST*
%TA.AperFunction,ComponentPad*%
%ADD10C,1.500000*%
%TD*%
%TA.AperFunction,ComponentPad*%
%ADD11R,1.300000X1.300000*%
%TD*%
%TA.AperFunction,ComponentPad*%
%ADD12C,2.000000*%
%TD*%
%TA.AperFunction,SMDPad,CuDef*%
%ADD13R,1.200000X7.250000*%
%TD*%
%TA.AperFunction,SMDPad,CuDef*%
%ADD14R,1.200000X6.000000*%
%TD*%
%TA.AperFunction,SMDPad,CuDef*%
%ADD15R,1.200000X6.750000*%
%TD*%
%TA.AperFunction,ViaPad*%
%ADD16C,0.500000*%
%TD*%
%TA.AperFunction,Conductor*%
%ADD17C,0.200000*%
%TD*%
%TA.AperFunction,Conductor*%
%ADD18C,0.250000*%
%TD*%
%TA.AperFunction,Conductor*%
%ADD19C,0.400000*%
%TD*%
G04 APERTURE END LIST*
D10*
%TO.P,J2,1,GND*%
%TO.N,/GND*%
X134038000Y-88898000D03*
%TO.P,J2,2,CLK*%
%TO.N,/CLK*%
X135587000Y-87348000D03*
%TO.P,J2,3,N/C*%
%TO.N,/DS.Cart.Pin3*%
X137088000Y-88898000D03*
%TO.P,J2,4,CS1*%
%TO.N,/DS.Cart.CS1*%
X138637000Y-87348000D03*
%TO.P,J2,5,Reset*%
%TO.N,/DS.Cart.Reset*%
X140138000Y-88898000D03*
%TO.P,J2,6,CS2*%
%TO.N,/DS.Cart.CS2*%
X141687000Y-87348000D03*
%TO.P,J2,7,IRQ*%
%TO.N,/DS.Cart.IRQ*%
X143188000Y-88898000D03*
%TO.P,J2,8,VCC*%
%TO.N,/VCC*%
X144737000Y-87348000D03*
%TO.P,J2,9,D0*%
%TO.N,/DS.D0*%
X146238000Y-88898000D03*
%TO.P,J2,10,D1*%
%TO.N,/DS.D1*%
X147787000Y-87348000D03*
%TO.P,J2,11,D2*%
%TO.N,/DS.D2*%
X149288000Y-88898000D03*
%TO.P,J2,12,D3*%
%TO.N,/DS.D3*%
X150837000Y-87348000D03*
%TO.P,J2,13,D4*%
%TO.N,/DS.D4*%
X152338000Y-88898000D03*
%TO.P,J2,14,D5*%
%TO.N,/DS.D5*%
X153887000Y-87348000D03*
%TO.P,J2,15,D6*%
%TO.N,/DS.D6*%
X155414000Y-88898000D03*
%TO.P,J2,16,D7*%
%TO.N,/DS.D7*%
X156937000Y-87348000D03*
%TO.P,J2,17,GND*%
%TO.N,/GND*%
X158490000Y-88898000D03*
%TD*%
D11*
%TO.P,SW1,1,A*%
%TO.N,/GND*%
X144724000Y-72671000D03*
%TO.P,SW1,2,B*%
%TO.N,/Switch*%
X146750000Y-72671000D03*
%TO.P,SW1,3,C*%
%TO.N,unconnected-(SW1-Pad3)*%
X148770000Y-72674000D03*
D12*
%TO.P,SW1,4,Shield*%
%TO.N,/GND*%
X142620000Y-72675000D03*
%TO.P,SW1,5,Shield*%
X150915100Y-72674200D03*
%TD*%
D13*
%TO.P,J3,1,GND*%
%TO.N,/GND*%
X158278000Y-125933000D03*
D14*
%TO.P,J3,2,CLK*%
%TO.N,unconnected-(J3-Pad2)*%
X156736000Y-125287000D03*
%TO.P,J3,3,N/C*%
%TO.N,/TCK*%
X155221000Y-125295000D03*
%TO.P,J3,4,CS1*%
%TO.N,/TDO*%
X153762000Y-125287000D03*
%TO.P,J3,5,Reset*%
%TO.N,/TDI*%
X152255000Y-125294000D03*
%TO.P,J3,6,CS2*%
%TO.N,/TMS*%
X150692000Y-125294000D03*
%TO.P,J3,7,IRQ*%
%TO.N,unconnected-(J3-Pad7)*%
X149193000Y-125294000D03*
D15*
%TO.P,J3,8,VCC*%
%TO.N,/VCC*%
X147766000Y-125637000D03*
D14*
%TO.P,J3,9,D0*%
%TO.N,unconnected-(J3-Pad9)*%
X146269000Y-125302000D03*
%TO.P,J3,10,D1*%
%TO.N,unconnected-(J3-Pad10)*%
X144706000Y-125302000D03*
%TO.P,J3,11,D2*%
%TO.N,unconnected-(J3-Pad11)*%
X143199000Y-125294000D03*
%TO.P,J3,12,D3*%
%TO.N,unconnected-(J3-Pad12)*%
X141724000Y-125294000D03*
%TO.P,J3,13,D4*%
%TO.N,unconnected-(J3-Pad13)*%
X140225000Y-125294000D03*
%TO.P,J3,14,D5*%
%TO.N,unconnected-(J3-Pad14)*%
X138726000Y-125286000D03*
%TO.P,J3,15,D6*%
%TO.N,unconnected-(J3-Pad15)*%
X137211000Y-125294000D03*
%TO.P,J3,16,D7*%
%TO.N,unconnected-(J3-Pad16)*%
X135696000Y-125294000D03*
D13*
%TO.P,J3,17,GND*%
%TO.N,unconnected-(J3-Pad17)*%
X134189000Y-125927000D03*
%TD*%
D16*
%TO.N,/TDO*%
X153024700Y-117878800D03*
%TO.N,/TCK*%
X152156000Y-117203200D03*
%TO.N,/TDI*%
X151716100Y-120441700D03*
%TO.N,/TMS*%
X151156000Y-121059400D03*
%TO.N,/EXCELSEMI.A16*%
X136181900Y-86085200D03*
X143534300Y-81525500D03*
X145187100Y-83178300D03*
X158007800Y-86656400D03*
X158349500Y-93601600D03*
X157355000Y-95177900D03*
X156421400Y-92839000D03*
X154219300Y-97085800D03*
%TO.N,/EXCELSEMI.A-1*%
X136137300Y-100264800D03*
X142796100Y-105497400D03*
%TO.N,/EXCELSEMI.DQ6*%
X138239800Y-82575000D03*
X134382200Y-92665500D03*
%TO.N,/EXCELSEMI.DQ4*%
X139223500Y-85645700D03*
X138976000Y-101640800D03*
%TO.N,/EXCELSEMI.DQ1*%
X141252600Y-85305600D03*
X141572300Y-91053200D03*
%TO.N,/EXCELSEMI.OE*%
X138393500Y-75575000D03*
X140299000Y-105045300D03*
%TO.N,/EXCELSEMI.CE*%
X142135300Y-79035800D03*
X137736900Y-104872800D03*
%TO.N,/EXCELSEMI.A2*%
X148905800Y-80712200D03*
X148952700Y-82037400D03*
%TO.N,/EXCELSEMI.A4*%
X152397900Y-79269900D03*
X152436900Y-80808000D03*
X152436900Y-84494400D03*
X152820300Y-90728300D03*
X153166300Y-96256600D03*
X145156000Y-103973900D03*
%TO.N,/EXCELSEMI.A5*%
X157955000Y-76242200D03*
X152762700Y-74227900D03*
X147405600Y-84832300D03*
X148246200Y-89670100D03*
X147352300Y-95597500D03*
X147656000Y-99328400D03*
%TO.N,/EXCELSEMI.A7*%
X153805200Y-92833200D03*
X154409900Y-83093200D03*
%TO.N,/EXCELSEMI.A17*%
X160003000Y-88560000D03*
X151156000Y-97242600D03*
%TO.N,/EXCELSEMI.A18*%
X151460900Y-85980800D03*
X149331900Y-91140800D03*
X149653000Y-94872400D03*
X151190400Y-101803600D03*
%TO.N,/EXCELSEMI.RY-BY*%
X151559000Y-105419500D03*
X155653000Y-79741300D03*
%TO.N,/EXCELSEMI.RESET*%
X159689800Y-86055500D03*
X155608000Y-105362300D03*
%TO.N,/EXCELSEMI.WE*%
X155710700Y-81350300D03*
X151126400Y-90690000D03*
%TO.N,/EXCELSEMI.A19*%
X157966300Y-81497400D03*
X163613300Y-82628500D03*
X159725800Y-91810000D03*
X156254700Y-95259000D03*
X153954100Y-94812700D03*
X151864200Y-102138700D03*
%TO.N,/EXCELSEMI.A8*%
X158879100Y-83956600D03*
X160790100Y-84126700D03*
X159163000Y-98857000D03*
X155577400Y-103105400D03*
%TO.N,/EXCELSEMI.A9*%
X155727800Y-82310400D03*
X137270600Y-105992100D03*
%TO.N,/EXCELSEMI.A10*%
X155782500Y-98851400D03*
X157741900Y-96892000D03*
X156411500Y-90451000D03*
X155570500Y-83075000D03*
%TO.N,/EXCELSEMI.A12*%
X157975100Y-84075000D03*
X154682300Y-101316900D03*
%TO.N,/EXCELSEMI.A14*%
X154437200Y-89696200D03*
X150682200Y-92459100D03*
%TO.N,/EXCELSEMI.A15*%
X155905700Y-93320200D03*
X148656400Y-107139800D03*
%TO.N,/DS.D6*%
X156626900Y-113800900D03*
X156804800Y-102890600D03*
%TO.N,/DS.D5*%
X153961400Y-90989900D03*
X152141600Y-91796600D03*
X152758900Y-96911100D03*
X151323000Y-106221300D03*
%TO.N,/DS.D4*%
X155520100Y-114593000D03*
X154282200Y-99304200D03*
%TO.N,/DS.D3*%
X150627500Y-102407800D03*
%TO.N,/DS.D2*%
X150336700Y-104180600D03*
%TO.N,/DS.D1*%
X149781600Y-103549900D03*
%TO.N,/DS.D0*%
X149210400Y-105196300D03*
%TO.N,/DS.Cart.IRQ*%
X137743100Y-106751500D03*
%TO.N,/DS.Cart.CS2*%
X140901600Y-104650500D03*
%TO.N,/DS.Cart.Reset*%
X141042800Y-103866700D03*
%TO.N,/DS.Cart.Pin3*%
X141272500Y-101968100D03*
%TO.N,/CLK*%
X139918600Y-115646600D03*
%TO.N,/VCC*%
X143328000Y-82244700D03*
X135973800Y-80179700D03*
X146001300Y-98920900D03*
X137612300Y-107996600D03*
X153072200Y-107759700D03*
X142367900Y-114634300D03*
%TO.N,/Switch*%
X137696300Y-112424800D03*
%TO.N,/GND*%
X150053100Y-95523700D03*
X147624300Y-109880000D03*
X135496500Y-84464000D03*
X158637700Y-106857900D03*
X157840200Y-120871200D03*
X145117000Y-119644800D03*
X157428000Y-109368500D03*
%TD*%
D17*
%TO.N,/TDO*%
X153762000Y-118616100D02*
X153024700Y-117878800D01*
X153762000Y-125287000D02*
X153762000Y-118616100D01*
%TO.N,/TCK*%
X153181400Y-117203200D02*
X152156000Y-117203200D01*
X155221000Y-119242800D02*
X153181400Y-117203200D01*
X155221000Y-125295000D02*
X155221000Y-119242800D01*
D18*
%TO.N,/TDI*%
X152469000Y-123274500D02*
X152429000Y-123314000D01*
D17*
X152255000Y-123488500D02*
X152255000Y-125294000D01*
X152469000Y-123274500D02*
X152255000Y-123488500D01*
D18*
X152509000Y-123235000D02*
X152469000Y-123274500D01*
D17*
X152509000Y-121234500D02*
X152509000Y-123235000D01*
X152508900Y-121234500D02*
X152509000Y-121234500D01*
X151716100Y-120441700D02*
X152508900Y-121234500D01*
%TO.N,/TMS*%
X150692000Y-125294000D02*
X150692000Y-121993900D01*
X151156000Y-121529900D02*
X151156000Y-121059400D01*
X150692000Y-121993900D02*
X151156000Y-121529900D01*
%TO.N,/EXCELSEMI.A16*%
X139341100Y-82926000D02*
X136181900Y-86085200D01*
X143495800Y-82926000D02*
X139341100Y-82926000D01*
X143915800Y-82506000D02*
X143495800Y-82926000D01*
X143915800Y-81907000D02*
X143915800Y-82506000D01*
X143534300Y-81525500D02*
X143915800Y-81907000D01*
X157355000Y-94596100D02*
X157355000Y-95177900D01*
X158349500Y-93601600D02*
X157355000Y-94596100D01*
X156331700Y-92749300D02*
X156421400Y-92839000D01*
X155698700Y-92749300D02*
X156331700Y-92749300D01*
X155355600Y-93092400D02*
X155698700Y-92749300D01*
X155355600Y-93602000D02*
X155355600Y-93092400D01*
X154504200Y-94453400D02*
X155355600Y-93602000D01*
X154504200Y-96800900D02*
X154504200Y-94453400D01*
X154219300Y-97085800D02*
X154504200Y-96800900D01*
X149665400Y-78700000D02*
X145187100Y-83178300D01*
X156003700Y-78700000D02*
X149665400Y-78700000D01*
X156856500Y-79552800D02*
X156003700Y-78700000D01*
X156856500Y-85505100D02*
X156856500Y-79552800D01*
X158007800Y-86656400D02*
X156856500Y-85505100D01*
%TO.N,/EXCELSEMI.A-1*%
X142697900Y-105595600D02*
X142796100Y-105497400D01*
X137652700Y-105595600D02*
X142697900Y-105595600D01*
X136137300Y-104080200D02*
X137652700Y-105595600D01*
X136137300Y-100264800D02*
X136137300Y-104080200D01*
%TO.N,/EXCELSEMI.DQ6*%
X135167800Y-91879900D02*
X134382200Y-92665500D01*
X135167800Y-88477800D02*
X135167800Y-91879900D01*
X134497000Y-87807000D02*
X135167800Y-88477800D01*
X134497000Y-86317800D02*
X134497000Y-87807000D01*
X138239800Y-82575000D02*
X134497000Y-86317800D01*
%TO.N,/EXCELSEMI.DQ4*%
X139711800Y-86134000D02*
X139223500Y-85645700D01*
X139711800Y-87774200D02*
X139711800Y-86134000D01*
X139053100Y-88432900D02*
X139711800Y-87774200D01*
X139053100Y-96964500D02*
X139053100Y-88432900D01*
X142252000Y-100163400D02*
X139053100Y-96964500D01*
X142252000Y-102332500D02*
X142252000Y-100163400D01*
X141587800Y-102996700D02*
X142252000Y-102332500D01*
X140331900Y-102996700D02*
X141587800Y-102996700D01*
X138976000Y-101640800D02*
X140331900Y-102996700D01*
%TO.N,/EXCELSEMI.DQ1*%
X141188200Y-90669100D02*
X141572300Y-91053200D01*
X141188200Y-88398200D02*
X141188200Y-90669100D01*
X140627300Y-87837300D02*
X141188200Y-88398200D01*
X140627300Y-85930900D02*
X140627300Y-87837300D01*
X141252600Y-85305600D02*
X140627300Y-85930900D01*
%TO.N,/EXCELSEMI.OE*%
X138388400Y-103134700D02*
X140299000Y-105045300D01*
X138388400Y-101401500D02*
X138388400Y-103134700D01*
X138707400Y-101082500D02*
X138388400Y-101401500D01*
X139609100Y-101082500D02*
X138707400Y-101082500D01*
X141064300Y-102537700D02*
X139609100Y-101082500D01*
X141481000Y-102537700D02*
X141064300Y-102537700D01*
X141833400Y-102185300D02*
X141481000Y-102537700D01*
X141833400Y-100510400D02*
X141833400Y-102185300D01*
X138548300Y-97225300D02*
X141833400Y-100510400D01*
X138548300Y-88809300D02*
X138548300Y-97225300D01*
X137586900Y-87847900D02*
X138548300Y-88809300D01*
X137586900Y-86478900D02*
X137586900Y-87847900D01*
X140334900Y-83730900D02*
X137586900Y-86478900D01*
X143822500Y-83730900D02*
X140334900Y-83730900D01*
X144716000Y-82837400D02*
X143822500Y-83730900D01*
X144716000Y-80838500D02*
X144716000Y-82837400D01*
X139452500Y-75575000D02*
X144716000Y-80838500D01*
X138393500Y-75575000D02*
X139452500Y-75575000D01*
%TO.N,/EXCELSEMI.CE*%
X144315900Y-81216400D02*
X142135300Y-79035800D01*
X144315900Y-82671700D02*
X144315900Y-81216400D01*
X143656900Y-83330700D02*
X144315900Y-82671700D01*
X140169300Y-83330700D02*
X143656900Y-83330700D01*
X137104800Y-86395200D02*
X140169300Y-83330700D01*
X137104800Y-87325100D02*
X137104800Y-86395200D01*
X136007600Y-88422300D02*
X137104800Y-87325100D01*
X136007600Y-89342900D02*
X136007600Y-88422300D01*
X136687400Y-90022700D02*
X136007600Y-89342900D01*
X136687400Y-103823300D02*
X136687400Y-90022700D01*
X137736900Y-104872800D02*
X136687400Y-103823300D01*
%TO.N,/EXCELSEMI.A2*%
X148905800Y-81990500D02*
X148952700Y-82037400D01*
X148905800Y-80712200D02*
X148905800Y-81990500D01*
%TO.N,/EXCELSEMI.A4*%
X153887000Y-89661600D02*
X152820300Y-90728300D01*
X153887000Y-88875000D02*
X153887000Y-89661600D01*
X154999300Y-87762700D02*
X153887000Y-88875000D01*
X154999300Y-82821600D02*
X154999300Y-87762700D01*
X154719400Y-82541700D02*
X154999300Y-82821600D01*
X154157600Y-82541700D02*
X154719400Y-82541700D01*
X152436900Y-84262400D02*
X154157600Y-82541700D01*
X152436900Y-84494400D02*
X152436900Y-84262400D01*
X146939000Y-105756900D02*
X145156000Y-103973900D01*
X149790100Y-105756900D02*
X146939000Y-105756900D01*
X150822900Y-106789700D02*
X149790100Y-105756900D01*
X151556400Y-106789700D02*
X150822900Y-106789700D01*
X152931800Y-105414300D02*
X151556400Y-106789700D01*
X152931800Y-98645200D02*
X152931800Y-105414300D01*
X153341800Y-98235200D02*
X152931800Y-98645200D01*
X153341800Y-96432100D02*
X153341800Y-98235200D01*
X153166300Y-96256600D02*
X153341800Y-96432100D01*
X152397900Y-80769000D02*
X152436900Y-80808000D01*
X152397900Y-79269900D02*
X152397900Y-80769000D01*
%TO.N,/EXCELSEMI.A5*%
X147502400Y-99174800D02*
X147656000Y-99328400D01*
X147502400Y-95747600D02*
X147502400Y-99174800D01*
X147352300Y-95597500D02*
X147502400Y-95747600D01*
X152785100Y-74205500D02*
X152762700Y-74227900D01*
X155918300Y-74205500D02*
X152785100Y-74205500D01*
X157955000Y-76242200D02*
X155918300Y-74205500D01*
X148844100Y-86270800D02*
X147405600Y-84832300D01*
X148844100Y-87840900D02*
X148844100Y-86270800D01*
X148171100Y-88513900D02*
X148844100Y-87840900D01*
X148171100Y-89595000D02*
X148171100Y-88513900D01*
X148246200Y-89670100D02*
X148171100Y-89595000D01*
%TO.N,/EXCELSEMI.A7*%
X153226800Y-92833200D02*
X153805200Y-92833200D01*
X153050800Y-93009200D02*
X153226800Y-92833200D01*
X150454400Y-93009200D02*
X153050800Y-93009200D01*
X150132100Y-92686900D02*
X150454400Y-93009200D01*
X150132100Y-92231300D02*
X150132100Y-92686900D01*
X150498900Y-91864500D02*
X150132100Y-92231300D01*
X150730000Y-91864500D02*
X150498900Y-91864500D01*
X151748100Y-90846400D02*
X150730000Y-91864500D01*
X151879400Y-90846400D02*
X151748100Y-90846400D01*
X153395300Y-89330500D02*
X151879400Y-90846400D01*
X153395300Y-88406300D02*
X153395300Y-89330500D01*
X152836800Y-87847800D02*
X153395300Y-88406300D01*
X152836800Y-85385300D02*
X152836800Y-87847800D01*
X154409900Y-83812200D02*
X152836800Y-85385300D01*
X154409900Y-83093200D02*
X154409900Y-83812200D01*
%TO.N,/EXCELSEMI.A17*%
X151156000Y-96809700D02*
X151156000Y-97242600D01*
X153982300Y-93983400D02*
X151156000Y-96809700D01*
X154408500Y-93983400D02*
X153982300Y-93983400D01*
X154955500Y-93436400D02*
X154408500Y-93983400D01*
X154955500Y-92914300D02*
X154955500Y-93436400D01*
X155835400Y-92034400D02*
X154955500Y-92914300D01*
X156881300Y-92034400D02*
X155835400Y-92034400D01*
X160003000Y-88912700D02*
X156881300Y-92034400D01*
X160003000Y-88560000D02*
X160003000Y-88912700D01*
%TO.N,/EXCELSEMI.A18*%
X150364300Y-90108400D02*
X149331900Y-91140800D01*
X150364300Y-88425100D02*
X150364300Y-90108400D01*
X149783600Y-87844400D02*
X150364300Y-88425100D01*
X149783600Y-86905200D02*
X149783600Y-87844400D01*
X150708000Y-85980800D02*
X149783600Y-86905200D01*
X151460900Y-85980800D02*
X150708000Y-85980800D01*
X149502900Y-95022500D02*
X149653000Y-94872400D01*
X149502900Y-96378400D02*
X149502900Y-95022500D01*
X151190400Y-98065900D02*
X149502900Y-96378400D01*
X151190400Y-101803600D02*
X151190400Y-98065900D01*
%TO.N,/EXCELSEMI.RY-BY*%
X151640600Y-83753700D02*
X155653000Y-79741300D01*
X151640600Y-83753800D02*
X151640600Y-83753700D01*
X147706100Y-83753800D02*
X151640600Y-83753800D01*
X146691800Y-84768100D02*
X147706100Y-83753800D01*
X146691800Y-87802700D02*
X146691800Y-84768100D01*
X147295300Y-88406200D02*
X146691800Y-87802700D01*
X147295300Y-94876600D02*
X147295300Y-88406200D01*
X146802200Y-95369700D02*
X147295300Y-94876600D01*
X146802200Y-95825300D02*
X146802200Y-95369700D01*
X147038400Y-96061500D02*
X146802200Y-95825300D01*
X147038400Y-101660200D02*
X147038400Y-96061500D01*
X150797700Y-105419500D02*
X147038400Y-101660200D01*
X151559000Y-105419500D02*
X150797700Y-105419500D01*
%TO.N,/EXCELSEMI.RESET*%
X160559800Y-86925500D02*
X159689800Y-86055500D01*
X160559800Y-89133900D02*
X160559800Y-86925500D01*
X157153700Y-92540000D02*
X160559800Y-89133900D01*
X157153700Y-92887600D02*
X157153700Y-92540000D01*
X156282600Y-93758700D02*
X157153700Y-92887600D01*
X156282600Y-93806700D02*
X156282600Y-93758700D01*
X155304400Y-94784900D02*
X156282600Y-93806700D01*
X155304400Y-97404200D02*
X155304400Y-94784900D01*
X153732000Y-98976600D02*
X155304400Y-97404200D01*
X153732000Y-103486300D02*
X153732000Y-98976600D01*
X155608000Y-105362300D02*
X153732000Y-103486300D01*
%TO.N,/EXCELSEMI.WE*%
X154782100Y-81350300D02*
X155710700Y-81350300D01*
X151886800Y-84245600D02*
X154782100Y-81350300D01*
X151886800Y-85235000D02*
X151886800Y-84245600D01*
X152011000Y-85359200D02*
X151886800Y-85235000D01*
X152011000Y-87739900D02*
X152011000Y-85359200D01*
X151276000Y-88474900D02*
X152011000Y-87739900D01*
X151276000Y-90540400D02*
X151276000Y-88474900D01*
X151126400Y-90690000D02*
X151276000Y-90540400D01*
%TO.N,/EXCELSEMI.A19*%
X156254700Y-95115500D02*
X156254700Y-95259000D01*
X157082800Y-94287400D02*
X156254700Y-95115500D01*
X157082800Y-94090000D02*
X157082800Y-94287400D01*
X159362800Y-91810000D02*
X157082800Y-94090000D01*
X159725800Y-91810000D02*
X159362800Y-91810000D01*
X153816700Y-94812700D02*
X153954100Y-94812700D01*
X151864200Y-96765200D02*
X153816700Y-94812700D01*
X151864200Y-102138700D02*
X151864200Y-96765200D01*
X162482200Y-81497400D02*
X157966300Y-81497400D01*
X163613300Y-82628500D02*
X162482200Y-81497400D01*
%TO.N,/EXCELSEMI.A8*%
X159049200Y-84126700D02*
X160790100Y-84126700D01*
X158879100Y-83956600D02*
X159049200Y-84126700D01*
X155577400Y-102442600D02*
X159163000Y-98857000D01*
X155577400Y-103105400D02*
X155577400Y-102442600D01*
%TO.N,/EXCELSEMI.A9*%
X156281300Y-81756900D02*
X155727800Y-82310400D01*
X156281300Y-79548800D02*
X156281300Y-81756900D01*
X155899700Y-79167200D02*
X156281300Y-79548800D01*
X155358700Y-79167200D02*
X155899700Y-79167200D01*
X151938300Y-82587600D02*
X155358700Y-79167200D01*
X147948400Y-82587600D02*
X151938300Y-82587600D01*
X142087200Y-88448800D02*
X147948400Y-82587600D01*
X142087200Y-89295400D02*
X142087200Y-88448800D01*
X143549900Y-90758100D02*
X142087200Y-89295400D01*
X143549900Y-105521800D02*
X143549900Y-90758100D01*
X142973200Y-106098500D02*
X143549900Y-105521800D01*
X137377000Y-106098500D02*
X142973200Y-106098500D01*
X137270600Y-105992100D02*
X137377000Y-106098500D01*
%TO.N,/EXCELSEMI.A10*%
X156467800Y-90394700D02*
X156411500Y-90451000D01*
X156467800Y-88428700D02*
X156467800Y-90394700D01*
X155570500Y-87531400D02*
X156467800Y-88428700D01*
X155570500Y-83075000D02*
X155570500Y-87531400D01*
X155782500Y-98851400D02*
X157741900Y-96892000D01*
%TO.N,/EXCELSEMI.A12*%
X158564100Y-84664000D02*
X157975100Y-84075000D01*
X160334700Y-84664000D02*
X158564100Y-84664000D01*
X163631500Y-87960800D02*
X160334700Y-84664000D01*
X163631500Y-89093700D02*
X163631500Y-87960800D01*
X162750900Y-89974300D02*
X163631500Y-89093700D01*
X160426700Y-89974300D02*
X162750900Y-89974300D01*
X157553800Y-92847200D02*
X160426700Y-89974300D01*
X157553800Y-93053300D02*
X157553800Y-92847200D01*
X156682700Y-93924400D02*
X157553800Y-93053300D01*
X156682700Y-93972400D02*
X156682700Y-93924400D01*
X155704500Y-94950600D02*
X156682700Y-93972400D01*
X155704500Y-97569900D02*
X155704500Y-94950600D01*
X154832300Y-98442100D02*
X155704500Y-97569900D01*
X154832300Y-101166900D02*
X154832300Y-98442100D01*
X154682300Y-101316900D02*
X154832300Y-101166900D01*
%TO.N,/EXCELSEMI.A14*%
X153370400Y-90763000D02*
X154437200Y-89696200D01*
X153370400Y-90956200D02*
X153370400Y-90763000D01*
X153048200Y-91278400D02*
X153370400Y-90956200D01*
X152592500Y-91278400D02*
X153048200Y-91278400D01*
X152560600Y-91246500D02*
X152592500Y-91278400D01*
X151913800Y-91246500D02*
X152560600Y-91246500D01*
X150701200Y-92459100D02*
X151913800Y-91246500D01*
X150682200Y-92459100D02*
X150701200Y-92459100D01*
%TO.N,/EXCELSEMI.A15*%
X155882500Y-93343400D02*
X155905700Y-93320200D01*
X155882500Y-93641000D02*
X155882500Y-93343400D01*
X154904300Y-94619200D02*
X155882500Y-93641000D01*
X154904300Y-97238500D02*
X154904300Y-94619200D01*
X153331900Y-98810900D02*
X154904300Y-97238500D01*
X153331900Y-105580000D02*
X153331900Y-98810900D01*
X151722100Y-107189800D02*
X153331900Y-105580000D01*
X148706400Y-107189800D02*
X151722100Y-107189800D01*
X148656400Y-107139800D02*
X148706400Y-107189800D01*
%TO.N,/DS.D6*%
X156804800Y-113623000D02*
X156804800Y-102890600D01*
X156626900Y-113800900D02*
X156804800Y-113623000D01*
%TO.N,/DS.D5*%
X152414300Y-97255700D02*
X152758900Y-96911100D01*
X152414300Y-105342400D02*
X152414300Y-97255700D01*
X151535400Y-106221300D02*
X152414300Y-105342400D01*
X151323000Y-106221300D02*
X151535400Y-106221300D01*
X153154700Y-91796600D02*
X153961400Y-90989900D01*
X152141600Y-91796600D02*
X153154700Y-91796600D01*
%TO.N,/DS.D4*%
X155520100Y-111157200D02*
X155520100Y-114593000D01*
X156189400Y-110487900D02*
X155520100Y-111157200D01*
X156189400Y-104574900D02*
X156189400Y-110487900D01*
X154132100Y-102517600D02*
X156189400Y-104574900D01*
X154132100Y-99454300D02*
X154132100Y-102517600D01*
X154282200Y-99304200D02*
X154132100Y-99454300D01*
%TO.N,/DS.D3*%
X150837000Y-90201500D02*
X150837000Y-87348000D01*
X150519000Y-90519500D02*
X150837000Y-90201500D01*
X150519000Y-91278600D02*
X150519000Y-90519500D01*
X149102700Y-92694900D02*
X150519000Y-91278600D01*
X149102700Y-96544000D02*
X149102700Y-92694900D01*
X150627400Y-98068700D02*
X149102700Y-96544000D01*
X150627400Y-102407800D02*
X150627400Y-98068700D01*
X150627500Y-102407800D02*
X150627400Y-102407800D01*
%TO.N,/DS.D2*%
X149288000Y-90099000D02*
X149288000Y-88898000D01*
X148641700Y-90745300D02*
X149288000Y-90099000D01*
X148641700Y-98608100D02*
X148641700Y-90745300D01*
X149955800Y-99922200D02*
X148641700Y-98608100D01*
X149955800Y-102930200D02*
X149955800Y-99922200D01*
X150336700Y-103311100D02*
X149955800Y-102930200D01*
X150336700Y-104180600D02*
X150336700Y-103311100D01*
%TO.N,/DS.D1*%
X149390000Y-103158300D02*
X149781600Y-103549900D01*
X149389900Y-103158300D02*
X149390000Y-103158300D01*
X149389900Y-99922300D02*
X149389900Y-103158300D01*
X147902500Y-98434900D02*
X149389900Y-99922300D01*
X147902500Y-94918000D02*
X147902500Y-98434900D01*
X147695500Y-94711000D02*
X147902500Y-94918000D01*
X147695500Y-87439500D02*
X147695500Y-94711000D01*
X147787000Y-87348000D02*
X147695500Y-87439500D01*
%TO.N,/DS.D0*%
X146638200Y-102624100D02*
X149210400Y-105196300D01*
X146638200Y-96227100D02*
X146638200Y-102624100D01*
X146238000Y-95826900D02*
X146638200Y-96227100D01*
X146238000Y-88898000D02*
X146238000Y-95826900D01*
%TO.N,/DS.Cart.IRQ*%
X143950000Y-89660000D02*
X143188000Y-88898000D01*
X143950000Y-105687500D02*
X143950000Y-89660000D01*
X142886000Y-106751500D02*
X143950000Y-105687500D01*
X137743100Y-106751500D02*
X142886000Y-106751500D01*
%TO.N,/DS.Cart.CS2*%
X141065600Y-104650500D02*
X140901600Y-104650500D01*
X143110700Y-102605400D02*
X141065600Y-104650500D01*
X143110700Y-91379200D02*
X143110700Y-102605400D01*
X141687000Y-89955500D02*
X143110700Y-91379200D01*
X141687000Y-87348000D02*
X141687000Y-89955500D01*
%TO.N,/DS.Cart.Reset*%
X141283600Y-103866700D02*
X141042800Y-103866700D01*
X142670800Y-102479500D02*
X141283600Y-103866700D01*
X142670800Y-100016300D02*
X142670800Y-102479500D01*
X140138100Y-97483600D02*
X142670800Y-100016300D01*
X140138100Y-88898000D02*
X140138100Y-97483600D01*
X140138000Y-88898000D02*
X140138100Y-88898000D01*
%TO.N,/DS.Cart.Pin3*%
X137088000Y-97783600D02*
X141272500Y-101968100D01*
X137088000Y-88898000D02*
X137088000Y-97783600D01*
%TO.N,/CLK*%
X139918600Y-111080700D02*
X139918600Y-115646600D01*
X135587000Y-106749100D02*
X139918600Y-111080700D01*
X135587000Y-87348000D02*
X135587000Y-106749100D01*
D19*
%TO.N,/VCC*%
X144737000Y-97656600D02*
X146001300Y-98920900D01*
X144737000Y-87348000D02*
X144737000Y-97656600D01*
X141263000Y-80179700D02*
X135973800Y-80179700D01*
X143328000Y-82244700D02*
X141263000Y-80179700D01*
X147766000Y-125637000D02*
X147766000Y-121861900D01*
X141525400Y-111909700D02*
X137612300Y-107996600D01*
X143311400Y-111909700D02*
X141525400Y-111909700D01*
X147312600Y-107908500D02*
X143311400Y-111909700D01*
X147194000Y-107790000D02*
X147312600Y-107908500D01*
X147194000Y-107668900D02*
X147194000Y-107790000D01*
X144459800Y-104934700D02*
X147194000Y-107668900D01*
X144459800Y-103261100D02*
X144459800Y-104934700D01*
X146001300Y-101719600D02*
X144459800Y-103261100D01*
X146001300Y-98920900D02*
X146001300Y-101719600D01*
X152489400Y-107759700D02*
X153072200Y-107759700D01*
X152340500Y-107908600D02*
X152489400Y-107759700D01*
X147312600Y-107908600D02*
X152340500Y-107908600D01*
X147312600Y-107908500D02*
X147312600Y-107908600D01*
X143311400Y-114634300D02*
X142367900Y-114634300D01*
X143311400Y-111909700D02*
X143311400Y-114634300D01*
X146392600Y-121861900D02*
X147766000Y-121861900D01*
X143311400Y-118780700D02*
X146392600Y-121861900D01*
X143311400Y-114634300D02*
X143311400Y-118780700D01*
D17*
%TO.N,/Switch*%
X146750000Y-72671000D02*
X145799900Y-72671000D01*
X137696200Y-112424800D02*
X137696300Y-112424800D01*
X137696200Y-111016600D02*
X137696200Y-112424800D01*
X133796300Y-107116700D02*
X137696200Y-111016600D01*
X133796300Y-90596500D02*
X133796300Y-107116700D01*
X132939200Y-89739400D02*
X133796300Y-90596500D01*
X132939200Y-80179300D02*
X132939200Y-89739400D01*
X141770500Y-71348000D02*
X132939200Y-80179300D01*
X145189500Y-71348000D02*
X141770500Y-71348000D01*
X145799900Y-71958400D02*
X145189500Y-71348000D01*
X145799900Y-72671000D02*
X145799900Y-71958400D01*
D19*
%TO.N,/GND*%
X143669900Y-72675000D02*
X143673900Y-72671000D01*
X142620000Y-72675000D02*
X143669900Y-72675000D01*
X144724000Y-72671000D02*
X143673900Y-72671000D01*
X133938000Y-86022500D02*
X135496500Y-84464000D01*
X133938000Y-88798000D02*
X133938000Y-86022500D01*
X134038000Y-88898000D02*
X133938000Y-88798000D01*
X158278000Y-121309000D02*
X158278000Y-125933000D01*
X157840200Y-120871200D02*
X158278000Y-121309000D01*
X156091800Y-119122800D02*
X157840200Y-120871200D01*
X156091800Y-115267700D02*
X156091800Y-119122800D01*
X157428000Y-113931500D02*
X157428000Y-109368500D01*
X156091800Y-115267700D02*
X157428000Y-113931500D01*
X151455800Y-95523700D02*
X150053100Y-95523700D01*
X153496200Y-93483300D02*
X151455800Y-95523700D01*
X154124300Y-93483300D02*
X153496200Y-93483300D01*
X154455400Y-93152200D02*
X154124300Y-93483300D01*
X154455400Y-92612200D02*
X154455400Y-93152200D01*
X155533300Y-91534300D02*
X154455400Y-92612200D01*
X156299000Y-91534300D02*
X155533300Y-91534300D01*
X158490000Y-89343300D02*
X156299000Y-91534300D01*
X158490000Y-88898000D02*
X158490000Y-89343300D01*
X158637700Y-108158800D02*
X158637700Y-106857900D01*
X157428000Y-109368500D02*
X158637700Y-108158800D01*
X156091800Y-115267700D02*
X148676200Y-115267700D01*
X148676200Y-110931900D02*
X148676200Y-115267700D01*
X147624300Y-109880000D02*
X148676200Y-110931900D01*
X148676200Y-116085600D02*
X145117000Y-119644800D01*
X148676200Y-115267700D02*
X148676200Y-116085600D01*
%TD*%
M02*
