%TF.GenerationSoftware,KiCad,Pcbnew,(6.0.2)*%
%TF.CreationDate,2022-10-02T17:57:44-05:00*%
%TF.ProjectId,MCN003R3,4d434e30-3033-4523-932e-6b696361645f,rev?*%
%TF.SameCoordinates,Original*%
%TF.FileFunction,Soldermask,Top*%
%TF.FilePolarity,Negative*%
%FSLAX46Y46*%
G04 Gerber Fmt 4.6, Leading zero omitted, Abs format (unit mm)*
G04 Created by KiCad (PCBNEW (6.0.2)) date 2022-10-02 17:57:44*
%MOMM*%
%LPD*%
G01*
G04 APERTURE LIST*
G04 Aperture macros list*
%AMRoundRect*
0 Rectangle with rounded corners*
0 $1 Rounding radius*
0 $2 $3 $4 $5 $6 $7 $8 $9 X,Y pos of 4 corners*
0 Add a 4 corners polygon primitive as box body*
4,1,4,$2,$3,$4,$5,$6,$7,$8,$9,$2,$3,0*
0 Add four circle primitives for the rounded corners*
1,1,$1+$1,$2,$3*
1,1,$1+$1,$4,$5*
1,1,$1+$1,$6,$7*
1,1,$1+$1,$8,$9*
0 Add four rect primitives between the rounded corners*
20,1,$1+$1,$2,$3,$4,$5,0*
20,1,$1+$1,$4,$5,$6,$7,0*
20,1,$1+$1,$6,$7,$8,$9,0*
20,1,$1+$1,$8,$9,$2,$3,0*%
G04 Aperture macros list end*
%ADD10R,1.300000X0.300000*%
%ADD11RoundRect,0.011200X0.128800X-0.768800X0.128800X0.768800X-0.128800X0.768800X-0.128800X-0.768800X0*%
%ADD12RoundRect,0.056000X0.724000X-0.084000X0.724000X0.084000X-0.724000X0.084000X-0.724000X-0.084000X0*%
%ADD13R,1.150000X0.910000*%
%ADD14R,0.910000X1.150000*%
%ADD15C,2.200000*%
%ADD16R,1.200000X7.250000*%
%ADD17R,1.200000X6.000000*%
%ADD18R,1.200000X6.750000*%
%ADD19C,1.500000*%
%ADD20R,1.300000X1.300000*%
%ADD21C,2.000000*%
G04 APERTURE END LIST*
D10*
%TO.C,IC2*%
X156832000Y-85575000D03*
X156832000Y-85075000D03*
X156832000Y-84575000D03*
X156832000Y-84075000D03*
X156832000Y-83575000D03*
X156832000Y-83075000D03*
X156832000Y-82575000D03*
X156832000Y-82075000D03*
X156832000Y-81575000D03*
X156832000Y-81075000D03*
X156832000Y-80575000D03*
X156832000Y-80075000D03*
X156832000Y-79575000D03*
X156832000Y-79075000D03*
X156832000Y-78575000D03*
X156832000Y-78075000D03*
X156832000Y-77575000D03*
X156832000Y-77075000D03*
X156832000Y-76575000D03*
X156832000Y-76075000D03*
X156832000Y-75575000D03*
X156832000Y-75075000D03*
X156832000Y-74575000D03*
X156832000Y-74075000D03*
X137132000Y-74075000D03*
X137132000Y-74575000D03*
X137132000Y-75075000D03*
X137132000Y-75575000D03*
X137132000Y-76075000D03*
X137132000Y-76575000D03*
X137132000Y-77075000D03*
X137132000Y-77575000D03*
X137132000Y-78075000D03*
X137132000Y-78575000D03*
X137132000Y-79075000D03*
X137132000Y-79575000D03*
X137132000Y-80075000D03*
X137132000Y-80575000D03*
X137132000Y-81075000D03*
X137132000Y-81575000D03*
X137132000Y-82075000D03*
X137132000Y-82575000D03*
X137132000Y-83075000D03*
X137132000Y-83575000D03*
X137132000Y-84075000D03*
X137132000Y-84575000D03*
X137132000Y-85075000D03*
X137132000Y-85575000D03*
%TD*%
D11*
%TO.C,IC1*%
X140656000Y-115931500D03*
X141156000Y-115931500D03*
X141656000Y-115931500D03*
X142156000Y-115931500D03*
X142656000Y-115931500D03*
X143156000Y-115931500D03*
X143656000Y-115931500D03*
X144156000Y-115931500D03*
X144656000Y-115931500D03*
X145156000Y-115931500D03*
X145656000Y-115931500D03*
X146156000Y-115931500D03*
X146656000Y-115931500D03*
X147156000Y-115931500D03*
X147656000Y-115931500D03*
X148156000Y-115931500D03*
X148656000Y-115931500D03*
X149156000Y-115931500D03*
X149656000Y-115931500D03*
X150156000Y-115931500D03*
X150656000Y-115931500D03*
X151156000Y-115931500D03*
X151656000Y-115931500D03*
X152156000Y-115931500D03*
X152656000Y-115931500D03*
D12*
X154336000Y-114251500D03*
X154336000Y-113751500D03*
X154336000Y-113251500D03*
X154336000Y-112751500D03*
X154336000Y-112251500D03*
X154336000Y-111751500D03*
X154336000Y-111251500D03*
X154336000Y-110751500D03*
X154336000Y-110251500D03*
X154336000Y-109751500D03*
X154336000Y-109251500D03*
X154336000Y-108751500D03*
X154336000Y-108251500D03*
X154336000Y-107751500D03*
X154336000Y-107251500D03*
X154336000Y-106751500D03*
X154336000Y-106251500D03*
X154336000Y-105751500D03*
X154336000Y-105251500D03*
X154336000Y-104751500D03*
X154336000Y-104251500D03*
X154336000Y-103751500D03*
X154336000Y-103251500D03*
X154336000Y-102751500D03*
X154336000Y-102251500D03*
D11*
X152656000Y-100571500D03*
X152156000Y-100571500D03*
X151656000Y-100571500D03*
X151156000Y-100571500D03*
X150656000Y-100571500D03*
X150156000Y-100571500D03*
X149656000Y-100571500D03*
X149156000Y-100571500D03*
X148656000Y-100571500D03*
X148156000Y-100571500D03*
X147656000Y-100571500D03*
X147156000Y-100571500D03*
X146656000Y-100571500D03*
X146156000Y-100571500D03*
X145656000Y-100571500D03*
X145156000Y-100571500D03*
X144656000Y-100571500D03*
X144156000Y-100571500D03*
X143656000Y-100571500D03*
X143156000Y-100571500D03*
X142656000Y-100571500D03*
X142156000Y-100571500D03*
X141656000Y-100571500D03*
X141156000Y-100571500D03*
X140656000Y-100571500D03*
D12*
X138976000Y-102251500D03*
X138976000Y-102751500D03*
X138976000Y-103251500D03*
X138976000Y-103751500D03*
X138976000Y-104251500D03*
X138976000Y-104751500D03*
X138976000Y-105251500D03*
X138976000Y-105751500D03*
X138976000Y-106251500D03*
X138976000Y-106751500D03*
X138976000Y-107251500D03*
X138976000Y-107751500D03*
X138976000Y-108251500D03*
X138976000Y-108751500D03*
X138976000Y-109251500D03*
X138976000Y-109751500D03*
X138976000Y-110251500D03*
X138976000Y-110751500D03*
X138976000Y-111251500D03*
X138976000Y-111751500D03*
X138976000Y-112251500D03*
X138976000Y-112751500D03*
X138976000Y-113251500D03*
X138976000Y-113751500D03*
X138976000Y-114251500D03*
%TD*%
D13*
%TO.C,C7*%
X157593000Y-105202000D03*
X157592000Y-103772000D03*
%TD*%
%TO.C,C6*%
X148182000Y-97956000D03*
X148181000Y-96526000D03*
%TD*%
%TO.C,R1*%
X135961000Y-115616000D03*
X135960000Y-114186000D03*
%TD*%
%TO.C,C8*%
X157549000Y-111713000D03*
X157548000Y-110283000D03*
%TD*%
%TO.C,C4*%
X135921000Y-104664000D03*
X135920000Y-103234000D03*
%TD*%
D14*
%TO.C,C1*%
X144880000Y-118609000D03*
X146310000Y-118608000D03*
%TD*%
D15*
%TO.C,Hole2*%
X162190000Y-88555000D03*
%TD*%
D13*
%TO.C,C3*%
X135959000Y-109268000D03*
X135958000Y-107838000D03*
%TD*%
D16*
%TO.C,J1*%
X134202000Y-125926000D03*
D17*
X135744000Y-125280000D03*
X137259000Y-125288000D03*
X138718000Y-125280000D03*
X140225000Y-125287000D03*
X141788000Y-125287000D03*
X143287000Y-125287000D03*
D18*
X144714000Y-125630000D03*
D17*
X146211000Y-125295000D03*
X147774000Y-125295000D03*
X149281000Y-125287000D03*
X150756000Y-125287000D03*
X152255000Y-125287000D03*
X153754000Y-125279000D03*
X155269000Y-125287000D03*
X156784000Y-125287000D03*
D16*
X158291000Y-125920000D03*
%TD*%
D13*
%TO.C,C9*%
X157550000Y-108454000D03*
X157549000Y-107024000D03*
%TD*%
%TO.C,C10*%
X134372000Y-80139000D03*
X134371000Y-78709000D03*
%TD*%
%TO.C,C5*%
X146316000Y-97956000D03*
X146315000Y-96526000D03*
%TD*%
D19*
%TO.C,J2*%
X134038000Y-88898000D03*
X135587000Y-87348000D03*
X137088000Y-88898000D03*
X138637000Y-87348000D03*
X140138000Y-88898000D03*
X141687000Y-87348000D03*
X143188000Y-88898000D03*
X144737000Y-87348000D03*
X146238000Y-88898000D03*
X147787000Y-87348000D03*
X149288000Y-88898000D03*
X150837000Y-87348000D03*
X152338000Y-88898000D03*
X153887000Y-87348000D03*
X155414000Y-88898000D03*
X156937000Y-87348000D03*
X158490000Y-88898000D03*
%TD*%
D20*
%TO.C,SW1*%
X144724000Y-72671000D03*
X146750000Y-72671000D03*
X148770000Y-72674000D03*
D21*
X142620000Y-72675000D03*
X150915100Y-72674200D03*
%TD*%
D13*
%TO.C,C2*%
X135958000Y-112483000D03*
X135957000Y-111053000D03*
%TD*%
D15*
%TO.C,Hole1*%
X131318000Y-88476000D03*
%TD*%
M02*
