%TF.GenerationSoftware,KiCad,Pcbnew,(6.0.2)*%
%TF.CreationDate,2022-10-02T17:57:44-05:00*%
%TF.ProjectId,MCN003R3,4d434e30-3033-4523-932e-6b696361645f,rev?*%
%TF.SameCoordinates,Original*%
%TF.FileFunction,Profile,NP*%
%FSLAX46Y46*%
G04 Gerber Fmt 4.6, Leading zero omitted, Abs format (unit mm)*
G04 Created by KiCad (PCBNEW (6.0.2)) date 2022-10-02 17:57:44*
%MOMM*%
%LPD*%
G01*
G04 APERTURE LIST*
%TA.AperFunction,Profile*%
%ADD10C,0.002000*%
%TD*%
G04 APERTURE END LIST*
D10*
X165985800Y-90371750D02*
X160485800Y-90371750D01*
X165985800Y-73728000D02*
G75*
G03*
X162895708Y-70621750I-2971137J134452D01*
G01*
X131830493Y-70621750D02*
G75*
G03*
X128735800Y-73724022I-123500J-2971504D01*
G01*
X132885800Y-119791750D02*
X132885800Y-129791750D01*
X158640000Y-117291750D02*
G75*
G03*
X158640000Y-119791750I12000J-1250000D01*
G01*
X128735800Y-78846000D02*
X128735800Y-73724022D01*
X134537000Y-119791750D02*
G75*
G03*
X134537000Y-117291750I-3272J1250000D01*
G01*
X164671000Y-78886000D02*
G75*
G03*
X164671000Y-82257000I-19122J-1685500D01*
G01*
X130154000Y-78846000D02*
X128735800Y-78846000D01*
X131830493Y-70621750D02*
X162895708Y-70621750D01*
X160485800Y-90371750D02*
X160485800Y-117291750D01*
X134537000Y-119791750D02*
X132885800Y-119791750D01*
X132885800Y-90371750D02*
X128735800Y-90371750D01*
X134537000Y-117291750D02*
X132885800Y-117291750D01*
X132885800Y-90371750D02*
X132885800Y-117291750D01*
X160485800Y-129791750D02*
X132885800Y-129791750D01*
X160485800Y-117291750D02*
X158640000Y-117291750D01*
X128735800Y-82217000D02*
X130154000Y-82217000D01*
X128735800Y-90371750D02*
X128735800Y-82217000D01*
X160485800Y-119791750D02*
X160485800Y-129791750D01*
X165985800Y-78886000D02*
X164671000Y-78886000D01*
X165985800Y-73728000D02*
X165985800Y-78886000D01*
X164671000Y-82257000D02*
X165985800Y-82257000D01*
X160485800Y-119791750D02*
X158640000Y-119791750D01*
X165985800Y-82257000D02*
X165985800Y-90371750D01*
X130154000Y-82217000D02*
G75*
G03*
X130154000Y-78846000I22064J1685500D01*
G01*
M02*
