M48
; DRILL file {KiCad (6.0.2)} date Sun Oct  2 17:57:42 2022
; FORMAT={-:-/ absolute / metric / decimal}
; #@! TF.CreationDate,2022-10-02T17:57:42-05:00
; #@! TF.GenerationSoftware,Kicad,Pcbnew,(6.0.2)
; #@! TF.FileFunction,Plated,1,2,PTH
FMAT,2
METRIC
; #@! TA.AperFunction,Plated,PTH,ViaDrill
T1C0.300
; #@! TA.AperFunction,Plated,PTH,ComponentDrill
T2C0.750
; #@! TA.AperFunction,Plated,PTH,ComponentDrill
T3C1.000
; #@! TA.AperFunction,Plated,PTH,ComponentDrill
T4C1.500
%
G90
G05
T1
X134.382Y-92.665
X135.496Y-84.464
X135.974Y-80.18
X136.137Y-100.265
X136.182Y-86.085
X137.271Y-105.992
X137.612Y-107.997
X137.696Y-112.425
X137.737Y-104.873
X137.743Y-106.751
X138.24Y-82.575
X138.393Y-75.575
X138.976Y-101.641
X139.224Y-85.646
X139.919Y-115.647
X140.299Y-105.045
X140.902Y-104.65
X141.043Y-103.867
X141.253Y-85.306
X141.272Y-101.968
X141.572Y-91.053
X142.135Y-79.036
X142.368Y-114.634
X142.796Y-105.497
X143.328Y-82.245
X143.534Y-81.525
X145.117Y-119.645
X145.156Y-103.974
X145.187Y-83.178
X146.001Y-98.921
X147.352Y-95.597
X147.406Y-84.832
X147.624Y-109.88
X147.656Y-99.328
X148.246Y-89.67
X148.656Y-107.14
X148.906Y-80.712
X148.953Y-82.037
X149.21Y-105.196
X149.332Y-91.141
X149.653Y-94.872
X149.782Y-103.55
X150.053Y-95.524
X150.337Y-104.181
X150.627Y-102.408
X150.682Y-92.459
X151.126Y-90.69
X151.156Y-97.243
X151.156Y-121.059
X151.19Y-101.804
X151.323Y-106.221
X151.461Y-85.981
X151.559Y-105.419
X151.716Y-120.442
X151.864Y-102.139
X152.142Y-91.797
X152.156Y-117.203
X152.398Y-79.27
X152.437Y-80.808
X152.437Y-84.494
X152.759Y-96.911
X152.763Y-74.228
X152.82Y-90.728
X153.025Y-117.879
X153.072Y-107.76
X153.166Y-96.257
X153.805Y-92.833
X153.954Y-94.813
X153.961Y-90.99
X154.219Y-97.086
X154.282Y-99.304
X154.41Y-83.093
X154.437Y-89.696
X154.682Y-101.317
X155.52Y-114.593
X155.57Y-83.075
X155.577Y-103.105
X155.608Y-105.362
X155.653Y-79.741
X155.711Y-81.35
X155.728Y-82.31
X155.782Y-98.851
X155.906Y-93.32
X156.255Y-95.259
X156.411Y-90.451
X156.421Y-92.839
X156.627Y-113.801
X156.805Y-102.891
X157.355Y-95.178
X157.428Y-109.368
X157.742Y-96.892
X157.84Y-120.871
X157.955Y-76.242
X157.966Y-81.497
X157.975Y-84.075
X158.008Y-86.656
X158.35Y-93.602
X158.638Y-106.858
X158.879Y-83.957
X159.163Y-98.857
X159.69Y-86.055
X159.726Y-91.81
X160.003Y-88.56
X160.79Y-84.127
X163.613Y-82.629
T2
X134.038Y-88.898
X135.587Y-87.348
X137.088Y-88.898
X138.637Y-87.348
X140.138Y-88.898
X141.687Y-87.348
X143.188Y-88.898
X144.737Y-87.348
X146.238Y-88.898
X147.787Y-87.348
X149.288Y-88.898
X150.837Y-87.348
X152.338Y-88.898
X153.887Y-87.348
X155.414Y-88.898
X156.937Y-87.348
X158.49Y-88.898
T3
X144.724Y-72.671
X146.75Y-72.671
X148.77Y-72.674
T4
X142.62Y-72.675
X150.915Y-72.674
T0
M30
